<svg width="24" height="24" viewBox="0 0 24 24" fill="none" xmlns="http://www.w3.org/2000/svg">
<path d="M10.233 0.561478C11.2767 0.0482024 12.4895 0.0145436 13.5553 0.463821L13.7662 0.559525L13.7819 0.567337L13.7975 0.576126L13.9742 0.670853L13.9879 0.678665L14.0026 0.686478L15.6012 1.60933C16.2467 1.98214 16.7615 2.52054 17.108 3.1523C17.8286 3.13648 18.5522 3.31385 19.1979 3.68648L20.7965 4.60835L20.8112 4.61714L20.8278 4.62788L20.9967 4.73335L21.0104 4.74117L21.0221 4.75093C21.9885 5.39813 22.6244 6.43142 22.7682 7.57906L22.7906 7.80952L22.7916 7.8271V7.84468L22.7985 8.04488V8.0605L22.7994 8.0771V9.92378C22.7992 10.6692 22.5894 11.3839 22.2155 12C22.5895 12.6161 22.7993 13.3315 22.7994 14.0771V15.9394L22.7985 15.9589L22.7916 16.1582V16.1738L22.7897 16.1894C22.7122 17.3497 22.1344 18.4169 21.2125 19.1152L21.025 19.25L21.0104 19.2597L20.9948 19.2685L20.8239 19.374L20.8102 19.3818L20.7965 19.3906L19.1979 20.3144C18.5522 20.687 17.8284 20.8625 17.108 20.8466C16.7615 21.4787 16.247 22.0176 15.6012 22.3906L14.0026 23.3134H14.0016C12.7627 24.0284 11.2358 24.0288 9.9967 23.3134L8.39905 22.3906C7.75382 22.0179 7.23876 21.4801 6.89221 20.8486C6.17181 20.8644 5.44803 20.687 4.80237 20.3144L3.20374 19.3906H3.20276C1.9641 18.6751 1.20082 17.3525 1.20081 15.9218V14.0771C1.20094 13.3321 1.40931 12.6167 1.78284 12.0009C1.40891 11.3849 1.20099 10.6692 1.20081 9.92378V8.0771H1.20178C1.20204 6.64672 1.96479 5.32374 3.20374 4.60835L4.80237 3.68648C5.4481 3.31385 6.17168 3.13548 6.89221 3.15132C7.23878 2.51989 7.75387 1.98199 8.39905 1.60933L9.9967 0.686478L10.0123 0.677689L10.0289 0.6689L10.2057 0.57515L10.2194 0.567337L10.233 0.561478Z" fill="#F7F7F8"/>
<path d="M14.598 10.5L14.598 13.5L11.9999 15L9.40187 13.5L9.40187 10.5L11.9999 9L14.598 10.5Z" fill="#335FFF"/>
<path d="M13.7321 11L13.7321 12L12.866 12.5L12 12L12 11L12.866 10.5L13.7321 11Z" fill="#F7F7F8"/>
<path d="M10.6765 1.46283C11.5106 1.05268 12.4889 1.05183 13.323 1.46185L13.4998 1.55658L15.0984 2.47943C15.778 2.87191 16.2644 3.50878 16.4773 4.24213C17.2195 4.05908 18.0156 4.16385 18.696 4.55658L20.2937 5.47845L20.4636 5.5849C21.2359 6.10213 21.7259 6.94946 21.7878 7.87689L21.7937 8.07709V9.92279C21.7937 10.7081 21.486 11.4488 20.9568 11.9999C21.486 12.5511 21.7936 13.2918 21.7937 14.0771L21.7947 15.9218L21.7869 16.122C21.7251 17.0495 21.2368 17.8976 20.4646 18.415L20.2947 18.5204L18.696 19.4433C18.0156 19.8361 17.2195 19.9399 16.4773 19.7568C16.2646 20.4905 15.7783 21.1278 15.0984 21.5204L13.4998 22.4433C12.5716 22.979 11.4278 22.9791 10.4998 22.4433L8.9021 21.5204C8.22198 21.1277 7.73391 20.4908 7.52124 19.7568C6.77947 19.9394 5.9844 19.8358 5.30444 19.4433L3.70581 18.5204C2.77779 17.9845 2.20581 16.9935 2.20581 15.9218V14.0771C2.20591 13.2919 2.51364 12.551 3.04272 11.9999C2.51364 11.4488 2.20583 10.708 2.20581 9.92279V8.07709C2.20594 7.00542 2.77772 6.01428 3.70581 5.47845L5.30444 4.55658C5.98431 4.16424 6.7796 4.0596 7.52124 4.24213C7.73406 3.50858 8.22229 2.87201 8.9021 2.47943L10.4998 1.55658L10.6765 1.46283ZM8.44995 19.3574C8.57032 19.8975 8.9116 20.371 9.4021 20.6542L10.9998 21.5771C11.6185 21.9343 12.381 21.9342 12.9998 21.5771L14.5984 20.6542C15.0884 20.3712 15.428 19.8979 15.5486 19.3583L11.9988 17.3085L8.44995 19.3574ZM3.85229 12.6054C3.44546 12.9796 3.20589 13.5112 3.20581 14.0771V15.9218C3.20579 16.6363 3.58713 17.2969 4.20581 17.6542L5.80444 18.5771C6.29462 18.86 6.87449 18.9182 7.4021 18.7529V14.6542L3.85229 12.6054ZM16.5984 14.6542V18.7529C17.1259 18.9181 17.7059 18.86 18.196 18.5771L19.7947 17.6542C20.4133 17.2969 20.7947 16.6362 20.7947 15.9218L20.7937 14.0771C20.7936 13.5108 20.5536 12.9797 20.1462 12.6054L16.5984 14.6542ZM8.4021 18.2324L10.9998 16.7314L8.4021 15.2314V18.2324ZM12.9988 16.7314L15.5984 18.2314V15.2314L12.9988 16.7314ZM8.4021 9.92279V14.0761L11.9998 16.1542L15.5984 14.0771V9.92279L11.9998 7.84467L8.4021 9.92279ZM16.5984 13.4999L19.196 11.9999L16.5984 10.4999V13.4999ZM4.80444 11.999L7.4021 13.499V10.4999L4.80444 11.999ZM7.4021 5.24701C6.87455 5.08168 6.29461 5.13993 5.80444 5.42279L4.20581 6.34467C3.58715 6.70189 3.20591 7.36269 3.20581 8.07709V9.92279C3.20586 10.4886 3.4455 11.0202 3.85229 11.3945L7.4021 9.34467V5.24701ZM18.196 5.42279C17.7059 5.13993 17.1259 5.0818 16.5984 5.24701V9.34467L20.1472 11.3935C20.5539 11.0193 20.7936 10.4885 20.7937 9.92279V8.07709C20.7936 7.36258 20.4125 6.70188 19.7937 6.34467L18.196 5.42279ZM12.9998 7.26752L15.5984 8.76752V5.76752L12.9998 7.26752ZM8.4021 8.76752L10.9988 7.26752L8.4021 5.76752V8.76752ZM12.9998 2.42279C12.381 2.06562 11.6185 2.06557 10.9998 2.42279L9.4021 3.34564C8.91192 3.62875 8.57052 4.10189 8.44995 4.64154L11.9988 6.68939L15.5486 4.64056C15.4278 4.10147 15.0881 3.62851 14.5984 3.34564L12.9998 2.42279Z" fill="#494D5A"/>
</svg>
